<svg width="544" height="1304" viewBox="0 0 544 1304" fill="none" xmlns="http://www.w3.org/2000/svg">
<g clip-path="url(#clip0_99_10)">
<rect width="544" height="1304" fill="white"/>
<path d="M100.5 244.5H100.748L100.773 244.027C106.034 146.755 186.576 69.5 285.161 69.5C387.147 69.5 469.823 152.176 469.823 254.161C469.823 254.942 469.818 255.722 469.808 256.5H469.5V257C469.5 292.286 465.671 316.86 460.188 335.623C454.705 354.385 447.562 367.359 440.897 379.464C430.626 398.118 421.5 414.693 421.5 447C421.5 480.293 431.191 500.691 441.839 523.105L441.845 523.118L441.849 523.128C454.92 550.641 469.476 581.28 469.5 642.845L469.5 642.923V643V647V647.086L469.5 647.172C469.488 682.395 465.656 706.93 460.174 725.669C454.693 744.406 447.557 757.369 440.897 769.464C430.626 788.118 421.5 804.693 421.5 837C421.5 870.293 431.191 890.691 441.839 913.105L441.845 913.118L441.85 913.128C454.896 940.59 469.421 971.165 469.5 1032.5H469.051L469.099 1033.04C469.578 1038.47 469.823 1043.96 469.823 1049.51C469.823 1151.49 387.147 1234.17 285.161 1234.17C183.176 1234.17 100.5 1151.49 100.5 1049.51C100.5 1043.96 100.745 1038.47 101.224 1033.04L101.272 1032.5H100.726H100.5C100.536 997.482 104.355 973.052 109.812 954.377C115.295 935.615 122.438 922.641 129.103 910.536C139.374 891.882 148.5 875.307 148.5 843C148.5 809.707 138.809 789.309 128.161 766.895L128.155 766.882L128.15 766.872C115.069 739.335 100.5 708.669 100.5 647V643C100.5 607.714 104.329 583.14 109.812 564.377C115.295 545.615 122.438 532.641 129.103 520.536C139.374 501.882 148.5 485.307 148.5 453C148.5 419.707 138.809 399.309 128.161 376.895L128.155 376.882L128.15 376.872C115.069 349.336 100.5 318.669 100.5 257V244.5ZM108.091 424.646C111.728 424.646 114.677 427.595 114.677 431.232C114.677 434.87 111.728 437.819 108.091 437.819C104.453 437.819 101.504 434.87 101.504 431.232C101.504 427.595 104.453 424.646 108.091 424.646ZM455.454 431.232C455.454 427.595 458.403 424.646 462.04 424.646C465.678 424.646 468.627 427.595 468.627 431.232C468.627 434.87 465.678 437.819 462.04 437.819C458.403 437.819 455.454 434.87 455.454 431.232ZM462.04 82.869C458.403 82.869 455.454 79.9201 455.454 76.2824C455.454 72.6447 458.403 69.6958 462.04 69.6958C465.678 69.6958 468.627 72.6447 468.627 76.2824C468.627 79.9201 465.678 82.869 462.04 82.869ZM114.677 76.2825C114.677 79.9202 111.728 82.8692 108.091 82.8692C104.453 82.8692 101.504 79.9202 101.504 76.2825C101.504 72.6449 104.453 69.6959 108.091 69.6959C111.728 69.6959 114.677 72.6449 114.677 76.2825ZM108.091 821.992C111.728 821.992 114.677 824.941 114.677 828.579C114.677 832.217 111.728 835.165 108.091 835.165C104.453 835.165 101.504 832.217 101.504 828.579C101.504 824.941 104.453 821.992 108.091 821.992ZM455.454 828.579C455.454 824.941 458.403 821.992 462.04 821.992C465.678 821.992 468.627 824.941 468.627 828.579C468.627 832.217 465.678 835.165 462.04 835.165C458.403 835.165 455.454 832.217 455.454 828.579ZM462.04 480.216C458.403 480.216 455.454 477.267 455.454 473.629C455.454 469.991 458.403 467.042 462.04 467.042C465.678 467.042 468.627 469.991 468.627 473.629C468.627 477.267 465.678 480.216 462.04 480.216ZM114.677 473.629C114.677 477.267 111.728 480.216 108.091 480.216C104.453 480.216 101.504 477.267 101.504 473.629C101.504 469.991 104.453 467.042 108.091 467.042C111.728 467.042 114.677 469.991 114.677 473.629ZM108.091 1219.99C111.728 1219.99 114.677 1222.94 114.677 1226.58C114.677 1230.22 111.728 1233.17 108.091 1233.17C104.453 1233.17 101.504 1230.22 101.504 1226.58C101.504 1222.94 104.453 1219.99 108.091 1219.99ZM455.454 1226.58C455.454 1222.94 458.403 1219.99 462.04 1219.99C465.678 1219.99 468.627 1222.94 468.627 1226.58C468.627 1230.22 465.678 1233.17 462.04 1233.17C458.403 1233.17 455.454 1230.22 455.454 1226.58ZM462.04 878.216C458.403 878.216 455.454 875.267 455.454 871.629C455.454 867.991 458.403 865.042 462.04 865.042C465.678 865.042 468.627 867.991 468.627 871.629C468.627 875.267 465.678 878.216 462.04 878.216ZM114.677 871.629C114.677 875.267 111.728 878.216 108.091 878.216C104.453 878.216 101.504 875.267 101.504 871.629C101.504 867.991 104.453 865.042 108.091 865.042C111.728 865.042 114.677 867.991 114.677 871.629Z" stroke="black"/>
</g>
<defs>
<clipPath id="clip0_99_10">
<rect width="544" height="1304" fill="white"/>
</clipPath>
</defs>
</svg>
