<svg width="590" height="1465" viewBox="0 0 590 1465" fill="none" xmlns="http://www.w3.org/2000/svg">
<g clip-path="url(#clip0_99_84)">
<rect width="590" height="1465" fill="white"/>
<path d="M551.5 1425L551 1425L551 1425.5L551 1442.5L40 1442.5L40 1425.5L40 1425L39.5 1425L30.5 1425L30.5001 31.5L39.5001 31.5L40.0001 31.5L40.0001 31L40.0001 22.5L551.5 22.5L551.5 31.5L551.5 32L552 32L559.5 32L559.5 1425L551.5 1425Z" stroke="black"/>
<path d="M479.5 1180.17L479.252 1180.17L479.227 1180.64C473.966 1277.91 393.424 1355.17 294.839 1355.17C192.853 1355.17 110.177 1272.49 110.177 1170.51C110.177 1169.73 110.182 1168.95 110.192 1168.17L110.5 1168.17L110.5 1167.67C110.5 1132.38 114.329 1107.81 119.812 1089.05C125.295 1070.28 132.438 1057.31 139.103 1045.2C149.374 1026.55 158.5 1009.98 158.5 977.669C158.5 944.376 148.809 923.978 138.161 901.564L138.155 901.551L138.151 901.541C125.08 874.027 110.524 843.389 110.5 781.824L110.5 781.746L110.5 781.669L110.5 777.669L110.5 777.583L110.5 777.497C110.513 742.274 114.344 717.739 119.826 699C125.307 680.262 132.443 667.3 139.103 655.205C149.374 636.551 158.5 619.976 158.5 587.669C158.5 554.376 148.81 533.978 138.161 511.564L138.155 511.551L138.15 511.541C125.104 484.079 110.579 453.504 110.5 392.169L110.949 392.169L110.901 391.625C110.422 386.201 110.178 380.71 110.178 375.161C110.178 273.176 192.853 190.5 294.839 190.5C396.824 190.5 479.5 273.176 479.5 375.161C479.5 380.71 479.255 386.201 478.776 391.625L478.728 392.169L479.274 392.169L479.5 392.169C479.464 427.187 475.645 451.617 470.188 470.292C464.705 489.054 457.562 502.028 450.897 514.133C440.626 532.787 431.5 549.362 431.5 581.669C431.5 614.962 441.191 635.36 451.839 657.774L451.845 657.787L451.85 657.797C464.931 685.334 479.5 716 479.5 777.669L479.5 781.669C479.5 816.955 475.671 841.529 470.188 860.292C464.705 879.054 457.562 892.028 450.897 904.133C440.626 922.787 431.5 939.362 431.5 971.669C431.5 1004.96 441.191 1025.36 451.839 1047.77L451.845 1047.79L451.85 1047.8C464.931 1075.33 479.5 1106 479.5 1167.67L479.5 1180.17ZM471.91 1000.02C468.272 1000.02 465.323 997.074 465.323 993.437C465.323 989.799 468.272 986.85 471.91 986.85C475.547 986.85 478.496 989.799 478.496 993.437C478.496 997.074 475.547 1000.02 471.91 1000.02ZM124.546 993.437C124.546 997.074 121.597 1000.02 117.96 1000.02C114.322 1000.02 111.373 997.074 111.373 993.437C111.373 989.799 114.322 986.85 117.96 986.85C121.597 986.85 124.546 989.799 124.546 993.437ZM117.96 1341.8C121.597 1341.8 124.546 1344.75 124.546 1348.39C124.546 1352.02 121.597 1354.97 117.96 1354.97C114.322 1354.97 111.373 1352.02 111.373 1348.39C111.373 1344.75 114.322 1341.8 117.96 1341.8ZM465.323 1348.39C465.323 1344.75 468.272 1341.8 471.909 1341.8C475.547 1341.8 478.496 1344.75 478.496 1348.39C478.496 1352.02 475.547 1354.97 471.909 1354.97C468.272 1354.97 465.323 1352.02 465.323 1348.39ZM471.91 602.677C468.272 602.677 465.323 599.728 465.323 596.09C465.323 592.452 468.272 589.503 471.91 589.503C475.547 589.503 478.496 592.452 478.496 596.09C478.496 599.728 475.547 602.677 471.91 602.677ZM124.546 596.09C124.546 599.728 121.597 602.677 117.96 602.677C114.322 602.677 111.373 599.728 111.373 596.09C111.373 592.452 114.322 589.503 117.96 589.503C121.597 589.503 124.546 592.452 124.546 596.09ZM117.96 944.453C121.597 944.453 124.546 947.402 124.546 951.04C124.546 954.678 121.597 957.627 117.96 957.627C114.322 957.627 111.373 954.678 111.373 951.04C111.373 947.402 114.322 944.453 117.96 944.453ZM465.323 951.04C465.323 947.402 468.272 944.453 471.91 944.453C475.547 944.453 478.496 947.402 478.496 951.04C478.496 954.678 475.547 957.627 471.91 957.627C468.272 957.627 465.323 954.678 465.323 951.04ZM471.91 204.677C468.272 204.677 465.323 201.728 465.323 198.09C465.323 194.452 468.272 191.503 471.91 191.503C475.547 191.503 478.496 194.452 478.496 198.09C478.496 201.728 475.547 204.677 471.91 204.677ZM124.546 198.09C124.546 201.728 121.597 204.677 117.96 204.677C114.322 204.677 111.373 201.728 111.373 198.09C111.373 194.452 114.322 191.503 117.96 191.503C121.597 191.503 124.546 194.452 124.546 198.09ZM117.96 546.453C121.597 546.453 124.546 549.402 124.546 553.04C124.546 556.678 121.597 559.627 117.96 559.627C114.322 559.627 111.373 556.678 111.373 553.04C111.373 549.402 114.322 546.453 117.96 546.453ZM465.323 553.04C465.323 549.402 468.272 546.453 471.91 546.453C475.547 546.453 478.496 549.402 478.496 553.04C478.496 556.678 475.547 559.627 471.91 559.627C468.272 559.627 465.323 556.678 465.323 553.04Z" stroke="black"/>
<circle cx="128.425" cy="90.4251" r="17.9252" transform="rotate(-180 128.425 90.4251)" stroke="black"/>
</g>
<defs>
<clipPath id="clip0_99_84">
<rect width="590" height="1465" fill="white"/>
</clipPath>
</defs>
</svg>
