<svg width="590" height="1465" viewBox="0 0 590 1465" fill="none" xmlns="http://www.w3.org/2000/svg">
<g clip-path="url(#clip0_99_87)">
<rect width="590" height="1465" fill="white"/>
<path d="M551.5 1425L551 1425L551 1425.5L551 1442.5L40 1442.5L40 1425.5L40 1425L39.5 1425L30.5 1425L30.5001 31.5L39.5001 31.5L40.0001 31.5L40.0001 31L40.0001 22.5L551.5 22.5L551.5 31.5L551.5 32L552 32L559.5 32L559.5 1425L551.5 1425Z" stroke="black"/>
<path d="M480.5 1080.17L480.252 1080.17L480.227 1080.64C474.966 1177.91 394.424 1255.17 295.839 1255.17C193.853 1255.17 111.177 1172.49 111.177 1070.51C111.177 1069.73 111.182 1068.95 111.192 1068.17L111.5 1068.17L111.5 1067.67C111.5 1032.38 115.329 1007.81 120.812 989.046C126.295 970.284 133.438 957.31 140.103 945.205C150.374 926.551 159.5 909.976 159.5 877.669C159.5 844.376 149.809 823.978 139.161 801.564L139.155 801.551L139.151 801.541C126.08 774.027 111.524 743.389 111.5 681.824L111.5 681.746L111.5 681.669L111.5 677.669L111.5 677.583L111.5 677.497C111.513 642.274 115.344 617.739 120.826 599C126.307 580.262 133.443 567.3 140.103 555.205C150.374 536.551 159.5 519.976 159.5 487.669C159.5 454.376 149.81 433.978 139.161 411.564L139.155 411.551L139.15 411.541C126.104 384.079 111.579 353.504 111.5 292.169L111.949 292.169L111.901 291.625C111.422 286.201 111.178 280.71 111.178 275.161C111.178 173.176 193.853 90.4999 295.839 90.4999C397.824 90.4999 480.5 173.176 480.5 275.161C480.5 280.71 480.255 286.201 479.776 291.625L479.728 292.169L480.274 292.169L480.5 292.169C480.464 327.187 476.645 351.617 471.188 370.292C465.705 389.054 458.562 402.028 451.897 414.133C441.626 432.787 432.5 449.362 432.5 481.669C432.5 514.962 442.191 535.36 452.839 557.774L452.845 557.787L452.85 557.797C465.931 585.334 480.5 616 480.5 677.669L480.5 681.669C480.5 716.955 476.671 741.529 471.188 760.292C465.705 779.054 458.562 792.028 451.897 804.133C441.626 822.787 432.5 839.362 432.5 871.669C432.5 904.962 442.191 925.36 452.839 947.774L452.845 947.787L452.85 947.797C465.931 975.333 480.5 1006 480.5 1067.67L480.5 1080.17ZM472.91 900.023C469.272 900.023 466.323 897.074 466.323 893.437C466.323 889.799 469.272 886.85 472.91 886.85C476.547 886.85 479.496 889.799 479.496 893.437C479.496 897.074 476.547 900.023 472.91 900.023ZM125.546 893.437C125.546 897.074 122.597 900.023 118.96 900.023C115.322 900.023 112.373 897.074 112.373 893.437C112.373 889.799 115.322 886.85 118.96 886.85C122.597 886.85 125.546 889.799 125.546 893.437ZM118.96 1241.8C122.597 1241.8 125.546 1244.75 125.546 1248.39C125.546 1252.02 122.597 1254.97 118.96 1254.97C115.322 1254.97 112.373 1252.02 112.373 1248.39C112.373 1244.75 115.322 1241.8 118.96 1241.8ZM466.323 1248.39C466.323 1244.75 469.272 1241.8 472.909 1241.8C476.547 1241.8 479.496 1244.75 479.496 1248.39C479.496 1252.02 476.547 1254.97 472.909 1254.97C469.272 1254.97 466.323 1252.02 466.323 1248.39ZM472.91 502.677C469.272 502.677 466.323 499.728 466.323 496.09C466.323 492.452 469.272 489.503 472.91 489.503C476.547 489.503 479.496 492.452 479.496 496.09C479.496 499.728 476.547 502.677 472.91 502.677ZM125.546 496.09C125.546 499.728 122.597 502.677 118.96 502.677C115.322 502.677 112.373 499.728 112.373 496.09C112.373 492.452 115.322 489.503 118.96 489.503C122.597 489.503 125.546 492.452 125.546 496.09ZM118.96 844.453C122.597 844.453 125.546 847.402 125.546 851.04C125.546 854.678 122.597 857.627 118.96 857.627C115.322 857.627 112.373 854.678 112.373 851.04C112.373 847.402 115.322 844.453 118.96 844.453ZM466.323 851.04C466.323 847.402 469.272 844.453 472.91 844.453C476.547 844.453 479.496 847.402 479.496 851.04C479.496 854.678 476.547 857.627 472.91 857.627C469.272 857.627 466.323 854.678 466.323 851.04ZM472.91 104.677C469.272 104.677 466.323 101.728 466.323 98.0901C466.323 94.4524 469.272 91.5034 472.91 91.5034C476.547 91.5034 479.496 94.4524 479.496 98.0901C479.496 101.728 476.547 104.677 472.91 104.677ZM125.546 98.0901C125.546 101.728 122.597 104.677 118.96 104.677C115.322 104.677 112.373 101.728 112.373 98.0901C112.373 94.4524 115.322 91.5034 118.96 91.5034C122.597 91.5034 125.546 94.4524 125.546 98.0901ZM118.96 446.453C122.597 446.453 125.546 449.402 125.546 453.04C125.546 456.678 122.597 459.627 118.96 459.627C115.322 459.627 112.373 456.678 112.373 453.04C112.373 449.402 115.322 446.453 118.96 446.453ZM466.323 453.04C466.323 449.402 469.272 446.453 472.91 446.453C476.547 446.453 479.496 449.402 479.496 453.04C479.496 456.678 476.547 459.627 472.91 459.627C469.272 459.627 466.323 456.678 466.323 453.04Z" stroke="black"/>
</g>
<defs>
<clipPath id="clip0_99_87">
<rect width="590" height="1465" fill="white"/>
</clipPath>
</defs>
</svg>
