<svg width="631" height="1375" viewBox="0 0 631 1375" fill="none" xmlns="http://www.w3.org/2000/svg">
<rect width="631" height="1375" fill="white"/>
<path d="M58.5 49H59V48.5V31.5H570V48.5V49H570.5H579.5V1308.5H50.5V49H58.5Z" stroke="black"/>
<path d="M499.823 310.161C499.823 310.942 499.818 311.722 499.808 312.5H499.5V313C499.5 348.286 495.671 372.86 490.188 391.623C484.705 410.385 477.562 423.359 470.897 435.464C460.626 454.118 451.5 470.693 451.5 503C451.5 536.293 461.191 556.691 471.839 579.105L471.845 579.118L471.849 579.128C484.92 606.641 499.476 637.28 499.5 698.845L499.5 698.923V699V703V703.086L499.5 703.172C499.488 738.395 495.656 762.93 490.174 781.669C484.693 800.406 477.557 813.369 470.897 825.464C460.626 844.118 451.5 860.693 451.5 893C451.5 926.293 461.191 946.691 471.839 969.105L471.845 969.118L471.85 969.128C484.896 996.59 499.421 1027.17 499.5 1088.5H499.051L499.099 1089.04C499.578 1094.47 499.823 1099.96 499.823 1105.51C499.823 1207.49 417.147 1290.17 315.161 1290.17C213.176 1290.17 130.5 1207.49 130.5 1105.51C130.5 1099.96 130.745 1094.47 131.224 1089.04L131.272 1088.5H130.726H130.5C130.536 1053.48 134.355 1029.05 139.812 1010.38C145.295 991.615 152.438 978.641 159.103 966.536C169.374 947.882 178.5 931.307 178.5 899C178.5 865.707 168.809 845.309 158.161 822.895L158.155 822.882L158.15 822.872C145.069 795.335 130.5 764.669 130.5 703V699C130.5 663.714 134.329 639.14 139.812 620.377C145.295 601.615 152.438 588.641 159.103 576.536C169.374 557.882 178.5 541.307 178.5 509C178.5 475.707 168.809 455.309 158.161 432.895L158.155 432.882L158.15 432.872C145.069 405.336 130.5 374.669 130.5 313V300.5H130.748L130.773 300.027C136.034 202.755 216.576 125.5 315.161 125.5C417.147 125.5 499.823 208.176 499.823 310.161ZM138.091 480.646C141.728 480.646 144.677 483.595 144.677 487.232C144.677 490.87 141.728 493.819 138.091 493.819C134.453 493.819 131.504 490.87 131.504 487.232C131.504 483.595 134.453 480.646 138.091 480.646ZM485.454 487.232C485.454 483.595 488.403 480.646 492.04 480.646C495.678 480.646 498.627 483.595 498.627 487.232C498.627 490.87 495.678 493.819 492.04 493.819C488.403 493.819 485.454 490.87 485.454 487.232ZM492.04 138.869C488.403 138.869 485.454 135.92 485.454 132.282C485.454 128.645 488.403 125.696 492.04 125.696C495.678 125.696 498.627 128.645 498.627 132.282C498.627 135.92 495.678 138.869 492.04 138.869ZM144.677 132.283C144.677 135.92 141.728 138.869 138.091 138.869C134.453 138.869 131.504 135.92 131.504 132.283C131.504 128.645 134.453 125.696 138.091 125.696C141.728 125.696 144.677 128.645 144.677 132.283ZM138.091 877.992C141.728 877.992 144.677 880.941 144.677 884.579C144.677 888.217 141.728 891.165 138.091 891.165C134.453 891.165 131.504 888.217 131.504 884.579C131.504 880.941 134.453 877.992 138.091 877.992ZM485.454 884.579C485.454 880.941 488.403 877.992 492.04 877.992C495.678 877.992 498.627 880.941 498.627 884.579C498.627 888.217 495.678 891.165 492.04 891.165C488.403 891.165 485.454 888.217 485.454 884.579ZM492.04 536.216C488.403 536.216 485.454 533.267 485.454 529.629C485.454 525.991 488.403 523.042 492.04 523.042C495.678 523.042 498.627 525.991 498.627 529.629C498.627 533.267 495.678 536.216 492.04 536.216ZM144.677 529.629C144.677 533.267 141.728 536.216 138.091 536.216C134.453 536.216 131.504 533.267 131.504 529.629C131.504 525.991 134.453 523.042 138.091 523.042C141.728 523.042 144.677 525.991 144.677 529.629ZM138.091 1275.99C141.728 1275.99 144.677 1278.94 144.677 1282.58C144.677 1286.22 141.728 1289.17 138.091 1289.17C134.453 1289.17 131.504 1286.22 131.504 1282.58C131.504 1278.94 134.453 1275.99 138.091 1275.99ZM485.454 1282.58C485.454 1278.94 488.403 1275.99 492.04 1275.99C495.678 1275.99 498.627 1278.94 498.627 1282.58C498.627 1286.22 495.678 1289.17 492.04 1289.17C488.403 1289.17 485.454 1286.22 485.454 1282.58ZM492.04 934.216C488.403 934.216 485.454 931.267 485.454 927.629C485.454 923.991 488.403 921.042 492.04 921.042C495.678 921.042 498.627 923.991 498.627 927.629C498.627 931.267 495.678 934.216 492.04 934.216ZM144.677 927.629C144.677 931.267 141.728 934.216 138.091 934.216C134.453 934.216 131.504 931.267 131.504 927.629C131.504 923.991 134.453 921.042 138.091 921.042C141.728 921.042 144.677 923.991 144.677 927.629Z" stroke="black"/>
</svg>
